<svg width="53" height="19" viewBox="0 0 53 19" fill="none" xmlns="http://www.w3.org/2000/svg">
<g id="ABB">
<path d="M28.3772 15.7037H24.7309V10.9207H28.2576C29.4544 10.9207 30.3613 11.1128 30.9524 11.4918C31.5285 11.8611 31.8085 12.4448 31.8085 13.2762C31.8085 14.9096 30.6861 15.7037 28.3772 15.7037ZM24.7309 3.84591H27.445C28.7053 3.84591 29.651 3.98736 30.2555 4.26654C30.8261 4.53035 31.1035 5.05776 31.1035 5.87892C31.1035 6.26057 31.0108 6.60991 30.8245 6.92299C30.5877 7.35955 30.256 7.64687 29.8107 7.80154C29.3479 7.96198 28.6766 8.04344 27.8156 8.04344H24.7309V3.84591ZM32.545 9.23281C34.1165 8.38736 34.9127 7.10387 34.9127 5.41275C34.9127 4.88546 34.8247 4.37794 34.6517 3.90409C34.4787 3.43024 34.2238 2.9913 33.8937 2.59937C33.5655 2.20901 33.1816 1.88148 32.7535 1.62591C32.2517 1.3221 31.6773 1.11353 31.046 1.00665C30.4267 0.902142 29.6855 0.849153 28.8431 0.849153H23.1666C22.3678 0.849153 21.7754 1.03659 21.4064 1.40559C21.0369 1.77505 20.8496 2.37521 20.8496 3.19004V18.7004H28.5207C29.4483 18.7004 30.2718 18.6535 30.968 18.5613C31.6719 18.4688 32.3055 18.306 32.8537 18.0769C33.7326 17.6909 34.4409 17.0848 34.9582 16.2757C35.4751 15.4675 35.7375 14.5469 35.7375 13.5393C35.7375 11.469 34.6641 10.0219 32.545 9.23281Z" fill="#2058BB"/>
<path d="M9.43676 4.99937L9.45822 5.05823L9.4798 4.99937L11.8295 11.55H7.08694L9.43676 4.99937ZM6.04253 14.5345H12.874L14.4036 18.6713H18.4219L17.3058 15.8493C17.2508 15.7047 17.1908 15.5507 17.1213 15.3785L12.2002 2.87665C12.0182 2.4115 11.8205 2.01843 11.6122 1.70818C11.3967 1.38674 11.1097 1.12304 10.7592 0.924532C10.4061 0.724779 9.96857 0.623435 9.45822 0.623322C8.94788 0.623435 8.51041 0.724779 8.15734 0.924532C7.80687 1.12304 7.51989 1.38674 7.30432 1.70818C7.09598 2.01843 6.89826 2.4115 6.71636 2.87665L1.79529 15.3785C1.7258 15.5507 1.66581 15.7047 1.61067 15.8493L0.494629 18.6713H4.51297L6.04253 14.5345Z" fill="#2058BB"/>
<path d="M45.6185 15.7037H41.9721V10.9207H45.4987C46.6957 10.9207 47.6025 11.1128 48.1937 11.4918C48.7698 11.8611 49.0497 12.4448 49.0497 13.2762C49.0497 14.9096 47.9274 15.7037 45.6185 15.7037ZM41.9721 3.84591H44.6862C45.9465 3.84591 46.8922 3.98736 47.4968 4.26654C48.0673 4.53035 48.3447 5.05776 48.3447 5.87892C48.3447 6.26057 48.252 6.60991 48.0658 6.92299C47.829 7.35955 47.4973 7.64687 47.0519 7.80154C46.5892 7.96198 45.9178 8.04344 45.0569 8.04344H41.9721V3.84591ZM49.7863 9.23281C51.3577 8.38736 52.1539 7.10387 52.1539 5.41275C52.1539 4.88546 52.066 4.37794 51.893 3.90409C51.7199 3.43024 51.465 2.9913 51.135 2.59937C50.8067 2.20901 50.4227 1.88148 49.9947 1.62591C49.4929 1.3221 48.9186 1.11353 48.2871 1.00665C47.6679 0.902142 46.9268 0.849153 46.0843 0.849153H40.4077C39.6091 0.849153 39.0167 1.03659 38.6476 1.40559C38.2781 1.77505 38.0909 2.37521 38.0909 3.19004V18.7004H45.762C46.6896 18.7004 47.5131 18.6535 48.2093 18.5613C48.9132 18.4688 49.5468 18.306 50.0949 18.0769C50.9738 17.6909 51.6822 17.0848 52.1995 16.2757C52.7163 15.4675 52.9786 14.5469 52.9786 13.5393C52.9786 11.469 51.9053 10.0219 49.7863 9.23281Z" fill="#2058BB"/>
</g>
</svg>
