<svg width="104" height="19" viewBox="0 0 104 19" fill="none" xmlns="http://www.w3.org/2000/svg">
<g id="Business">
<path d="M2.185 8.00401V1.66512H8.00187C10.67 1.66512 12.0041 2.77546 12.0041 4.99614C12.0041 5.41045 11.9212 5.7999 11.7555 6.16449C11.5898 6.52908 11.3412 6.85224 11.0097 7.13397C10.6783 7.39912 10.264 7.61456 9.76682 7.78028C9.26965 7.92944 8.68133 8.00401 8.00187 8.00401H2.185ZM0.494629 0.223328V17.9722H8.00187C8.96306 17.9722 9.78339 17.8894 10.4629 17.7236C11.1589 17.5414 11.7389 17.3176 12.2029 17.0525C12.6835 16.7707 13.0647 16.4476 13.3464 16.083C13.6282 15.7184 13.8436 15.3538 13.9927 14.9892C14.1419 14.6081 14.2413 14.2435 14.291 13.8955C14.3408 13.5309 14.3656 13.2077 14.3656 12.926C14.3656 11.7659 14.0259 10.7964 13.3464 10.0175C12.667 9.22207 11.7555 8.74976 10.612 8.60061V8.5509C11.076 8.45146 11.4903 8.27745 11.8549 8.02887C12.2361 7.78029 12.5592 7.48198 12.8244 7.13397C13.1061 6.76938 13.3216 6.37164 13.4707 5.94076C13.6199 5.49331 13.6944 5.03757 13.6944 4.57355C13.6944 3.74494 13.537 3.05719 13.2221 2.5103C12.9073 1.94684 12.4847 1.49939 11.9544 1.16795C11.4406 0.81993 10.8357 0.579632 10.1397 0.447053C9.46023 0.297903 8.74762 0.223328 8.00187 0.223328H0.494629ZM2.185 16.5304V9.4458H8.00187C9.50995 9.4458 10.6617 9.73581 11.4572 10.3158C12.2692 10.8793 12.6753 11.7328 12.6753 12.8763C12.6753 13.5889 12.551 14.1855 12.3024 14.6661C12.0538 15.1301 11.7141 15.503 11.2832 15.7847C10.8523 16.0664 10.3551 16.2653 9.79167 16.3813C9.22822 16.4807 8.63162 16.5304 8.00187 16.5304H2.185Z" fill="#2058BB"/>
<path d="M28.4104 17.9722V5.14529H26.8444V11.8819C26.8444 12.5282 26.7698 13.1663 26.6206 13.796C26.4715 14.4092 26.2395 14.9561 25.9246 15.4367C25.6097 15.9173 25.212 16.3067 24.7314 16.605C24.2508 16.8868 23.6708 17.0276 22.9913 17.0276C21.7484 17.0276 20.87 16.7293 20.3563 16.1327C19.8591 15.5361 19.594 14.6578 19.5608 13.4977V5.14529H17.9948V13.4729C17.9948 14.2352 18.0776 14.9146 18.2433 15.5113C18.4091 16.1079 18.6659 16.6133 19.014 17.0276C19.3785 17.4419 19.8426 17.7568 20.406 17.9722C20.9861 18.2042 21.6821 18.3203 22.4941 18.3203C23.4553 18.3203 24.3254 18.0965 25.1043 17.6491C25.8997 17.1851 26.5046 16.5222 26.9189 15.6604H26.9686V17.9722H28.4104Z" fill="#2058BB"/>
<path d="M40.2955 8.89891H41.8615C41.8284 8.20288 41.6875 7.59799 41.439 7.08425C41.1904 6.57051 40.8506 6.13963 40.4198 5.79161C40.0055 5.44359 39.5166 5.18672 38.9531 5.021C38.4062 4.85528 37.8096 4.77242 37.1633 4.77242C36.5999 4.77242 36.0281 4.83871 35.4481 4.97128C34.8846 5.10386 34.3709 5.31102 33.9069 5.59274C33.4428 5.87447 33.0617 6.24735 32.7634 6.71137C32.4816 7.1754 32.3408 7.73057 32.3408 8.37689C32.3408 8.92377 32.4319 9.3878 32.6142 9.76896C32.7965 10.1335 33.0451 10.4484 33.36 10.7136C33.6914 10.9622 34.0726 11.1776 34.5035 11.3599C34.9343 11.5256 35.4067 11.6748 35.9204 11.8073L37.9339 12.2548C38.2819 12.3377 38.6217 12.4371 38.9531 12.5531C39.3011 12.6691 39.6077 12.8183 39.8729 13.0006C40.138 13.1663 40.3452 13.3817 40.4943 13.6469C40.6601 13.8955 40.7429 14.2103 40.7429 14.5915C40.7429 15.0389 40.6269 15.4201 40.3949 15.735C40.1795 16.0333 39.8977 16.2819 39.5497 16.4807C39.2017 16.6796 38.8205 16.8205 38.4062 16.9033C38.0085 16.9862 37.619 17.0276 37.2379 17.0276C36.1938 17.0276 35.3155 16.7625 34.6029 16.2321C33.9069 15.6853 33.5257 14.8815 33.4594 13.8209H31.8933C32.0259 15.3952 32.5562 16.5387 33.4843 17.2513C34.4289 17.9639 35.6552 18.3203 37.1633 18.3203C37.7599 18.3203 38.3648 18.254 38.978 18.1214C39.5911 17.9888 40.138 17.7734 40.6186 17.4751C41.1158 17.1602 41.5218 16.7625 41.8367 16.2819C42.1516 15.7847 42.309 15.1881 42.309 14.4921C42.309 13.9286 42.2013 13.4397 41.9858 13.0254C41.7704 12.6111 41.4887 12.2631 41.1407 11.9814C40.8092 11.6996 40.4198 11.4759 39.9723 11.3102C39.5414 11.1279 39.1023 11.0036 38.6548 10.9373L36.5667 10.465C36.3016 10.3987 36.0115 10.3158 35.6967 10.2164C35.3818 10.1004 35.0918 9.95954 34.8266 9.79382C34.5615 9.62809 34.3377 9.42923 34.1554 9.19722C33.9897 8.94863 33.9069 8.65033 33.9069 8.30231C33.9069 7.888 33.998 7.53999 34.1803 7.25826C34.3626 6.97653 34.6029 6.7528 34.9012 6.58708C35.1995 6.40479 35.5227 6.28049 35.8707 6.21421C36.2353 6.13134 36.5916 6.08991 36.9396 6.08991C37.387 6.08991 37.8096 6.14792 38.2074 6.26392C38.6051 6.36336 38.9531 6.52908 39.2514 6.76109C39.5663 6.9931 39.8149 7.2914 39.9972 7.65599C40.1795 8.00401 40.2789 8.41832 40.2955 8.89891Z" fill="#2058BB"/>
<path d="M45.85 0.223328V2.73403H47.416V0.223328H45.85ZM45.85 5.14529V17.9722H47.416V5.14529H45.85Z" fill="#2058BB"/>
<path d="M51.6313 5.14529V17.9722H53.1974V10.4899C53.2139 9.86011 53.3134 9.28008 53.4957 8.74976C53.6945 8.20288 53.9597 7.73885 54.2911 7.35769C54.6392 6.95996 55.0535 6.65337 55.5341 6.43793C56.0312 6.20592 56.5947 6.08991 57.2244 6.08991C57.8542 6.08991 58.3762 6.18935 58.7905 6.38821C59.2214 6.58708 59.5611 6.86052 59.8097 7.20854C60.0583 7.55656 60.2323 7.97087 60.3317 8.45146C60.4312 8.91549 60.4809 9.42094 60.4809 9.96782V17.9722H62.047V9.71924C62.047 8.95692 61.9724 8.26917 61.8232 7.65599C61.6741 7.04282 61.4172 6.52908 61.0526 6.11477C60.688 5.68389 60.1992 5.35245 59.586 5.12044C58.9894 4.88842 58.2436 4.77242 57.3487 4.77242C56.4373 4.77242 55.6003 5.01272 54.838 5.49331C54.0757 5.95733 53.5454 6.57879 53.2471 7.35769H53.1974V5.14529H51.6313Z" fill="#2058BB"/>
<path d="M75.4732 10.6639H67.1705C67.2368 10.0838 67.3694 9.52037 67.5683 8.97349C67.7837 8.41003 68.0654 7.92115 68.4134 7.50684C68.7615 7.07596 69.1841 6.73623 69.6812 6.48765C70.1784 6.22249 70.7501 6.08991 71.3964 6.08991C72.0262 6.08991 72.5897 6.22249 73.0868 6.48765C73.584 6.73623 74.0066 7.07596 74.3546 7.50684C74.7026 7.92115 74.9678 8.40175 75.1501 8.94863C75.3489 9.49552 75.4567 10.0673 75.4732 10.6639ZM67.1705 11.9814H77.0393C77.0725 11.0865 76.9896 10.2081 76.7907 9.34636C76.5919 8.46803 76.2604 7.69742 75.7964 7.03453C75.3489 6.35507 74.7606 5.80818 74.0314 5.39388C73.3023 4.97957 72.4239 4.77242 71.3964 4.77242C70.3855 4.77242 69.5072 4.97128 68.7615 5.36902C68.0323 5.75018 67.4357 6.26392 66.9716 6.91024C66.5076 7.53999 66.1596 8.26088 65.9276 9.07292C65.7122 9.88496 65.6044 10.7136 65.6044 11.5588C65.6044 12.4702 65.7122 13.3403 65.9276 14.1689C66.1596 14.9809 66.5076 15.7018 66.9716 16.3316C67.4357 16.9448 68.0323 17.4336 68.7615 17.7982C69.5072 18.1462 70.3855 18.3203 71.3964 18.3203C73.0205 18.3203 74.2717 17.9225 75.1501 17.127C76.045 16.3316 76.6581 15.2047 76.9896 13.7463H75.4235C75.1749 14.7406 74.7275 15.5361 74.0812 16.1327C73.4348 16.7293 72.5399 17.0276 71.3964 17.0276C70.6507 17.0276 70.0127 16.8702 69.4823 16.5553C68.952 16.2404 68.5129 15.8427 68.1649 15.3621C67.8168 14.8815 67.56 14.3429 67.3942 13.7463C67.2451 13.1331 67.1705 12.5448 67.1705 11.9814Z" fill="#2058BB"/>
<path d="M88.0654 8.89891H89.6315C89.5983 8.20288 89.4574 7.59799 89.2089 7.08425C88.9603 6.57051 88.6205 6.13963 88.1897 5.79161C87.7754 5.44359 87.2865 5.18672 86.723 5.021C86.1761 4.85528 85.5795 4.77242 84.9332 4.77242C84.3698 4.77242 83.798 4.83871 83.218 4.97128C82.6545 5.10386 82.1408 5.31102 81.6768 5.59274C81.2127 5.87447 80.8316 6.24735 80.5333 6.71137C80.2515 7.1754 80.1107 7.73057 80.1107 8.37689C80.1107 8.92377 80.2018 9.3878 80.3841 9.76896C80.5664 10.1335 80.815 10.4484 81.1299 10.7136C81.4613 10.9622 81.8425 11.1776 82.2734 11.3599C82.7042 11.5256 83.1766 11.6748 83.6903 11.8073L85.7038 12.2548C86.0518 12.3377 86.3916 12.4371 86.723 12.5531C87.071 12.6691 87.3776 12.8183 87.6428 13.0006C87.9079 13.1663 88.1151 13.3817 88.2642 13.6469C88.43 13.8955 88.5128 14.2103 88.5128 14.5915C88.5128 15.0389 88.3968 15.4201 88.1648 15.735C87.9494 16.0333 87.6676 16.2819 87.3196 16.4807C86.9716 16.6796 86.5904 16.8205 86.1761 16.9033C85.7784 16.9862 85.3889 17.0276 85.0078 17.0276C83.9637 17.0276 83.0854 16.7625 82.3728 16.2321C81.6768 15.6853 81.2956 14.8815 81.2293 13.8209H79.6632C79.7958 15.3952 80.3261 16.5387 81.2542 17.2513C82.1988 17.9639 83.4251 18.3203 84.9332 18.3203C85.5298 18.3203 86.1347 18.254 86.7479 18.1214C87.3611 17.9888 87.9079 17.7734 88.3885 17.4751C88.8857 17.1602 89.2917 16.7625 89.6066 16.2819C89.9215 15.7847 90.0789 15.1881 90.0789 14.4921C90.0789 13.9286 89.9712 13.4397 89.7557 13.0254C89.5403 12.6111 89.2586 12.2631 88.9106 11.9814C88.5791 11.6996 88.1897 11.4759 87.7422 11.3102C87.3113 11.1279 86.8722 11.0036 86.4247 10.9373L84.3366 10.465C84.0714 10.3987 83.7814 10.3158 83.4666 10.2164C83.1517 10.1004 82.8617 9.95954 82.5965 9.79382C82.3314 9.62809 82.1076 9.42923 81.9253 9.19722C81.7596 8.94863 81.6768 8.65033 81.6768 8.30231C81.6768 7.888 81.7679 7.53999 81.9502 7.25826C82.1325 6.97653 82.3728 6.7528 82.6711 6.58708C82.9694 6.40479 83.2926 6.28049 83.6406 6.21421C84.0052 6.13134 84.3615 6.08991 84.7095 6.08991C85.1569 6.08991 85.5795 6.14792 85.9773 6.26392C86.375 6.36336 86.723 6.52908 87.0213 6.76109C87.3362 6.9931 87.5848 7.2914 87.7671 7.65599C87.9494 8.00401 88.0488 8.41832 88.0654 8.89891Z" fill="#2058BB"/>
<path d="M101.276 8.89891H102.842C102.809 8.20288 102.668 7.59799 102.42 7.08425C102.171 6.57051 101.831 6.13963 101.401 5.79161C100.986 5.44359 100.497 5.18672 99.9339 5.021C99.387 4.85528 98.7904 4.77242 98.1441 4.77242C97.5806 4.77242 97.0089 4.83871 96.4289 4.97128C95.8654 5.10386 95.3517 5.31102 94.8876 5.59274C94.4236 5.87447 94.0425 6.24735 93.7442 6.71137C93.4624 7.1754 93.3216 7.73057 93.3216 8.37689C93.3216 8.92377 93.4127 9.3878 93.595 9.76896C93.7773 10.1335 94.0259 10.4484 94.3408 10.7136C94.6722 10.9622 95.0534 11.1776 95.4843 11.3599C95.9151 11.5256 96.3874 11.6748 96.9012 11.8073L98.9147 12.2548C99.2627 12.3377 99.6025 12.4371 99.9339 12.5531C100.282 12.6691 100.589 12.8183 100.854 13.0006C101.119 13.1663 101.326 13.3817 101.475 13.6469C101.641 13.8955 101.724 14.2103 101.724 14.5915C101.724 15.0389 101.608 15.4201 101.376 15.735C101.16 16.0333 100.879 16.2819 100.531 16.4807C100.182 16.6796 99.8013 16.8205 99.387 16.9033C98.9893 16.9862 98.5998 17.0276 98.2187 17.0276C97.1746 17.0276 96.2963 16.7625 95.5837 16.2321C94.8876 15.6853 94.5065 14.8815 94.4402 13.8209H92.8741C93.0067 15.3952 93.537 16.5387 94.465 17.2513C95.4097 17.9639 96.636 18.3203 98.1441 18.3203C98.7407 18.3203 99.3456 18.254 99.9588 18.1214C100.572 17.9888 101.119 17.7734 101.599 17.4751C102.097 17.1602 102.503 16.7625 102.817 16.2819C103.132 15.7847 103.29 15.1881 103.29 14.4921C103.29 13.9286 103.182 13.4397 102.967 13.0254C102.751 12.6111 102.469 12.2631 102.121 11.9814C101.79 11.6996 101.401 11.4759 100.953 11.3102C100.522 11.1279 100.083 11.0036 99.6356 10.9373L97.5475 10.465C97.2823 10.3987 96.9923 10.3158 96.6775 10.2164C96.3626 10.1004 96.0726 9.95954 95.8074 9.79382C95.5423 9.62809 95.3185 9.42923 95.1362 9.19722C94.9705 8.94863 94.8876 8.65033 94.8876 8.30231C94.8876 7.888 94.9788 7.53999 95.1611 7.25826C95.3434 6.97653 95.5837 6.7528 95.882 6.58708C96.1803 6.40479 96.5034 6.28049 96.8515 6.21421C97.216 6.13134 97.5723 6.08991 97.9204 6.08991C98.3678 6.08991 98.7904 6.14792 99.1882 6.26392C99.5859 6.36336 99.9339 6.52908 100.232 6.76109C100.547 6.9931 100.796 7.2914 100.978 7.65599C101.16 8.00401 101.26 8.41832 101.276 8.89891Z" fill="#2058BB"/>
</g>
</svg>
