<svg width="53" height="52" viewBox="0 0 53 52" fill="none" xmlns="http://www.w3.org/2000/svg">
<g id="Logo">
<path d="M10.4125 25.9717C7.51289 21.2828 5.96088 15.7349 7.00395 10.1139C7.35978 8.19667 8.89823 6.70719 10.8246 6.40382C12.548 6.13223 13.7938 5.99617 16.235 6.19903C15.3553 7.65956 14.8348 9.11622 14.2875 10.5319C13.0682 10.4876 11.826 10.7315 11.4326 10.8529C10.4418 14.5149 11.7203 20.7846 15.5828 25.9717H10.4125Z" fill="#2058BB"/>
<path d="M15.1391 14.56C16.4043 9.1941 19.2299 4.17357 23.942 0.936588C25.5494 -0.167599 27.6905 -0.132843 29.2672 1.01463C30.6778 2.04129 31.6549 2.82609 33.2378 4.69569C31.5829 5.1063 30.1848 5.76835 28.7967 6.38246C27.9658 5.48888 26.9151 4.78303 26.551 4.59064C23.2611 6.4795 19.7317 11.8171 18.7951 18.216L15.1391 14.56Z" fill="#2058BB"/>
<path d="M26.5508 9.83306C31.2398 6.93344 36.7876 5.38129 42.4086 6.42437C44.326 6.7802 45.8153 8.31865 46.1188 10.245C46.3903 11.9684 46.5263 13.2142 46.3236 15.6556C44.8631 14.7758 43.4064 14.2554 41.9907 13.7079C42.0349 12.4887 41.7911 11.2466 41.6696 10.8531C38.0076 9.86239 31.7378 11.1409 26.5508 15.0033V9.83306Z" fill="#2058BB"/>
<path d="M37.963 14.5597C43.3289 15.8249 48.3493 18.6504 51.5863 23.3626C52.6906 24.9699 52.6558 27.111 51.5083 28.6878C50.4817 30.0985 49.6969 31.0755 47.8273 32.6584C47.4165 31.0036 46.7546 29.6054 46.1405 28.2174C47.0341 27.3865 47.7398 26.3358 47.9323 25.9717C46.0433 22.6816 40.7059 19.1523 34.307 18.2157L37.963 14.5597Z" fill="#2058BB"/>
<path d="M42.6901 25.9712C45.5898 30.6601 47.1418 36.208 46.0987 41.829C45.7429 43.7464 44.2044 45.2357 42.2781 45.5392C40.5546 45.8107 39.3088 45.9469 36.8676 45.7439C37.7473 44.2835 38.2677 42.8268 38.8151 41.411C40.0345 41.4553 41.2766 41.2114 41.6701 41.0902C42.6607 37.428 41.3823 31.1583 37.5197 25.9712H42.6901Z" fill="#2058BB"/>
<path d="M37.9631 37.3836C36.6978 42.7494 33.8723 47.7698 29.1601 51.0068C27.5528 52.1111 25.4117 52.0764 23.835 50.9289C22.4244 49.9022 21.4473 49.1175 19.8644 47.2479C21.5193 46.8371 22.9173 46.1752 24.3053 45.5611C25.1364 46.4545 26.1871 47.1604 26.5512 47.3529C29.8411 45.4639 33.3705 40.1265 34.3071 33.7276L37.9631 37.3836Z" fill="#2058BB"/>
<path d="M26.5511 42.1105C21.8621 45.0101 16.3143 46.5621 10.6933 45.5192C8.77592 45.1634 7.28658 43.6249 6.98307 41.6986C6.71161 39.9751 6.57543 38.7292 6.77828 36.288C8.23895 37.1678 9.69548 37.6882 11.1112 38.2355C11.067 39.4548 11.3109 40.697 11.4323 41.0904C15.0943 42.0812 21.364 40.8027 26.5511 36.9401V42.1105Z" fill="#2058BB"/>
<path d="M15.1395 37.3836C9.77364 36.1184 4.75324 33.293 1.51613 28.5807C0.411945 26.9734 0.446702 24.8322 1.5943 23.2555C2.62084 21.8449 3.40563 20.8678 5.27536 19.2849C5.68597 20.9398 6.34789 22.3379 6.962 23.726C6.06842 24.5569 5.3627 25.6076 5.17019 25.9717C7.05904 29.2618 12.3966 32.791 18.7955 33.7276L15.1395 37.3836Z" fill="#2058BB"/>
</g>
</svg>
